<svg xmlns="http://www.w3.org/2000/svg" xmlns:xlink="http://www.w3.org/1999/xlink" width="1080" zoomAndPan="magnify" viewBox="0 0 810 809.999993" height="742" preserveAspectRatio="xMidYMid meet" version="1.0"><defs><clipPath id="id1"><path d="M 35.472656 55.421875 L 756 55.421875 L 756 754.363281 L 35.472656 754.363281 Z M 35.472656 55.421875 " clip-rule="nonzero"/></clipPath><clipPath id="id2"><path d="M 16.839844 70 L 793.371094 70 L 793.371094 754.363281 L 16.839844 754.363281 Z M 16.839844 70 " clip-rule="nonzero"/></clipPath></defs><g clip-path="url(#id1)"><path fill="#fab328" d="M 148.640625 398.699219 L 76.464844 398.699219 C 73.582031 398.699219 71.253906 396.371094 71.253906 393.496094 L 71.253906 384.480469 C 71.253906 381.605469 73.582031 379.277344 76.464844 379.277344 L 148.640625 379.277344 C 151.515625 379.277344 153.84375 381.605469 153.84375 384.480469 L 153.84375 393.496094 C 153.84375 396.371094 151.515625 398.699219 148.640625 398.699219 Z M 35.976562 337.253906 L 35.976562 308.089844 L 51.796875 308.089844 L 51.796875 337.253906 C 51.796875 338.292969 50.953125 339.132812 49.917969 339.132812 L 37.859375 339.132812 C 36.820312 339.132812 35.976562 338.292969 35.976562 337.253906 Z M 166.992188 136.367188 L 166.886719 136.339844 L 166.886719 120.871094 C 166.886719 84.726562 137.570312 55.421875 101.40625 55.421875 C 65.242188 55.421875 35.929688 84.726562 35.929688 120.871094 L 35.929688 151.128906 L 39.554688 151.128906 L 54.492188 204.152344 C 55.082031 206.230469 57.238281 207.4375 59.3125 206.855469 L 68.535156 204.261719 C 70.617188 203.671875 71.824219 201.511719 71.242188 199.441406 L 53.011719 134.753906 C 52.421875 132.679688 50.269531 131.472656 48.1875 132.054688 L 42.546875 133.644531 L 42.546875 123.710938 C 42.546875 90.941406 68.90625 70 101.40625 70 C 133.917969 70 160.261719 90.941406 160.261719 123.710938 L 160.261719 134.472656 L 157.769531 133.769531 C 155.6875 133.1875 153.535156 134.394531 152.953125 136.472656 L 134.71875 201.15625 C 134.136719 203.234375 135.34375 205.386719 137.421875 205.976562 L 146.644531 208.570312 C 148.71875 209.152344 150.878906 207.945312 151.46875 205.875 L 169.691406 141.1875 C 170.277344 139.113281 169.066406 136.953125 166.992188 136.367188 Z M 341.03125 157.261719 L 343.367188 159.59375 L 361.414062 141.554688 L 359.078125 139.222656 Z M 361.234375 133.238281 L 358.898438 130.902344 L 340.851562 148.941406 L 343.183594 151.277344 Z M 733.980469 754.363281 L 69.476562 754.363281 C 69.476562 754.363281 117.671875 646.890625 173.136719 587.453125 C 228.601562 528.023438 192.25 490.3125 230.976562 401.238281 C 334.824219 162.371094 497.515625 131.925781 629.445312 166.101562 C 853.105469 224.027344 577.507812 381.015625 690.503906 410.878906 C 803.5 440.742188 733.980469 754.363281 733.980469 754.363281 " fill-opacity="1" fill-rule="nonzero"/></g><path fill="#ef2b47" d="M 140.03125 605.042969 L 62.21875 605.042969 C 60.78125 605.042969 59.617188 606.207031 59.617188 607.640625 L 59.617188 613.519531 L 65.378906 613.519531 L 70.605469 670.878906 L 131.648438 670.878906 L 136.871094 613.519531 L 142.632812 613.519531 L 142.632812 607.640625 C 142.632812 606.207031 141.46875 605.042969 140.03125 605.042969 Z M 411.484375 585.816406 C 411.484375 575.914062 402.003906 567.878906 390.308594 567.878906 C 378.613281 567.878906 369.128906 575.914062 369.128906 585.816406 C 369.128906 595.722656 378.613281 603.753906 390.308594 603.753906 C 402.003906 603.753906 411.484375 595.722656 411.484375 585.816406 Z M 538.203125 507.074219 L 547.648438 526.652344 L 547.648438 507.074219 Z M 579.113281 579.621094 L 578.585938 588.703125 L 503.589844 613.453125 L 501.242188 605.8125 L 496.953125 665.019531 L 484.613281 665.40625 L 485.554688 656.6875 C 485.875 655.238281 484.929688 653.828125 483.625 653.828125 L 304.222656 653.828125 L 293.953125 573.3125 L 253.058594 618.4375 L 191.152344 582.652344 L 190.425781 570.597656 C 190.210938 567.023438 192.832031 563.914062 196.386719 563.519531 L 200.796875 563.035156 L 279.453125 459.582031 L 397.089844 414.789062 L 512.269531 453.332031 L 536.339844 503.21875 L 547.78125 503.21875 C 548.765625 503.21875 549.613281 503.582031 550.335938 504.308594 C 551.050781 505.03125 551.417969 505.890625 551.417969 506.890625 L 551.417969 529.679688 C 551.417969 530.679688 551.058594 531.539062 550.355469 532.257812 L 569.097656 571.117188 L 574.40625 572.792969 C 577.347656 573.71875 579.289062 576.53125 579.113281 579.621094 Z M 639.933594 209.675781 L 653.777344 209.675781 C 654.875 209.675781 655.769531 208.789062 655.769531 207.691406 L 655.769531 205.265625 L 637.953125 205.265625 L 637.953125 207.691406 C 637.953125 208.789062 638.835938 209.675781 639.933594 209.675781 Z M 434.761719 160.746094 C 438.238281 160.746094 441.066406 157.921875 441.066406 154.449219 C 441.066406 150.972656 438.238281 148.148438 434.761719 148.148438 C 431.292969 148.148438 428.457031 150.972656 428.457031 154.449219 C 428.457031 157.921875 431.292969 160.746094 434.761719 160.746094 Z M 427.847656 108.515625 L 274.507812 108.515625 L 274.507812 200.378906 L 427.847656 200.378906 Z M 605.574219 519.703125 C 605.042969 519.703125 604.59375 519.890625 604.222656 520.269531 C 603.851562 520.644531 603.671875 521.085938 603.671875 521.601562 L 603.671875 529.539062 L 599.863281 529.539062 L 599.863281 503.265625 L 590.289062 503.265625 C 589.761719 503.265625 589.304688 503.449219 588.9375 503.816406 C 588.566406 504.195312 588.382812 504.640625 588.382812 505.167969 C 588.382812 505.695312 588.566406 506.144531 588.9375 506.515625 C 589.304688 506.886719 589.761719 507.074219 590.289062 507.074219 L 596.046875 507.074219 L 596.046875 529.539062 L 590.199219 529.539062 C 589.671875 529.539062 589.214844 529.722656 588.84375 530.085938 C 588.476562 530.449219 588.292969 530.886719 588.292969 531.402344 C 588.292969 531.929688 588.476562 532.382812 588.84375 532.773438 C 589.214844 533.152344 589.671875 533.347656 590.199219 533.347656 L 605.574219 533.347656 C 606.105469 533.347656 606.550781 533.164062 606.921875 532.789062 C 607.292969 532.417969 607.480469 531.972656 607.480469 531.445312 L 607.480469 521.601562 C 607.480469 521.074219 607.292969 520.625 606.921875 520.257812 C 606.550781 519.886719 606.105469 519.703125 605.574219 519.703125 Z M 575.707031 507.074219 L 564.09375 507.074219 L 564.09375 529.539062 L 575.707031 529.539062 Z M 578.394531 504.308594 C 579.109375 505.03125 579.472656 505.890625 579.472656 506.890625 L 579.472656 529.679688 C 579.472656 530.691406 579.109375 531.550781 578.394531 532.269531 C 577.671875 532.988281 576.808594 533.347656 575.796875 533.347656 L 563.957031 533.347656 C 562.929688 533.347656 562.0625 532.988281 561.347656 532.269531 C 560.636719 531.550781 560.277344 530.691406 560.277344 529.679688 L 560.277344 506.890625 C 560.277344 505.890625 560.644531 505.03125 561.371094 504.308594 C 562.09375 503.582031 562.953125 503.21875 563.957031 503.21875 L 575.839844 503.21875 C 576.820312 503.21875 577.671875 503.582031 578.394531 504.308594 Z M 721.148438 429.851562 L 721.148438 436.789062 L 717.339844 436.789062 L 717.339844 425.953125 C 716.109375 424.785156 714.839844 423.667969 713.53125 422.601562 L 713.53125 436.789062 L 707.675781 436.789062 C 707.148438 436.789062 706.699219 436.972656 706.332031 437.335938 C 705.960938 437.699219 705.777344 438.136719 705.777344 438.652344 C 705.777344 439.179688 705.960938 439.632812 706.332031 440.023438 C 706.699219 440.402344 707.148438 440.597656 707.675781 440.597656 L 723.054688 440.597656 C 723.582031 440.597656 724.039062 440.414062 724.40625 440.039062 C 724.777344 439.671875 724.960938 439.222656 724.960938 438.695312 L 724.960938 434.40625 C 723.734375 432.832031 722.464844 431.308594 721.148438 429.851562 Z M 693.183594 414.324219 L 681.574219 414.324219 L 681.574219 436.789062 L 693.183594 436.789062 Z M 696.726562 412.886719 C 696.867188 413.28125 696.953125 413.691406 696.953125 414.140625 L 696.953125 436.929688 C 696.953125 437.941406 696.59375 438.804688 695.878906 439.519531 C 695.15625 440.238281 694.289062 440.597656 693.277344 440.597656 L 681.433594 440.597656 C 680.410156 440.597656 679.542969 440.238281 678.832031 439.519531 C 678.117188 438.804688 677.765625 437.941406 677.765625 436.929688 L 677.765625 414.140625 C 677.765625 413.140625 678.128906 412.28125 678.851562 411.558594 C 679.578125 410.832031 680.441406 410.46875 681.433594 410.46875 L 689.046875 410.46875 C 689.527344 410.605469 690.007812 410.746094 690.503906 410.878906 C 692.644531 411.445312 694.714844 412.121094 696.726562 412.886719 Z M 665.128906 414.324219 L 653.515625 414.324219 L 653.515625 436.789062 L 665.128906 436.789062 Z M 667.816406 411.558594 C 668.539062 412.28125 668.894531 413.140625 668.894531 414.140625 L 668.894531 436.929688 C 668.894531 437.941406 668.539062 438.804688 667.816406 439.519531 C 667.101562 440.238281 666.230469 440.597656 665.21875 440.597656 L 653.382812 440.597656 C 652.351562 440.597656 651.484375 440.238281 650.777344 439.519531 C 650.066406 438.804688 649.707031 437.941406 649.707031 436.929688 L 649.707031 414.140625 C 649.707031 413.140625 650.070312 412.28125 650.800781 411.558594 C 651.523438 410.832031 652.382812 410.46875 653.382812 410.46875 L 665.269531 410.46875 C 666.25 410.46875 667.101562 410.832031 667.816406 411.558594 Z M 638.890625 426.953125 C 638.363281 426.953125 637.910156 427.140625 637.539062 427.519531 C 637.167969 427.894531 636.988281 428.34375 636.988281 428.851562 L 636.988281 436.789062 L 633.175781 436.789062 L 633.175781 410.515625 L 623.605469 410.515625 C 623.070312 410.515625 622.628906 410.699219 622.25 411.066406 C 621.882812 411.445312 621.699219 411.890625 621.699219 412.417969 C 621.699219 412.949219 621.882812 413.394531 622.25 413.765625 C 622.628906 414.136719 623.070312 414.324219 623.605469 414.324219 L 629.367188 414.324219 L 629.367188 436.789062 L 623.515625 436.789062 C 622.984375 436.789062 622.53125 436.972656 622.160156 437.335938 C 621.796875 437.699219 621.609375 438.136719 621.609375 438.652344 C 621.609375 439.179688 621.796875 439.632812 622.160156 440.023438 C 622.53125 440.402344 622.984375 440.597656 623.515625 440.597656 L 638.890625 440.597656 C 639.417969 440.597656 639.867188 440.414062 640.238281 440.039062 C 640.609375 439.671875 640.796875 439.222656 640.796875 438.695312 L 640.796875 428.851562 C 640.796875 428.324219 640.609375 427.875 640.238281 427.507812 C 639.867188 427.136719 639.417969 426.953125 638.890625 426.953125 Z M 609.019531 414.324219 L 597.410156 414.324219 L 597.410156 436.789062 L 609.019531 436.789062 Z M 611.707031 411.558594 C 612.425781 412.28125 612.78125 413.140625 612.78125 414.140625 L 612.78125 436.929688 C 612.78125 437.941406 612.425781 438.804688 611.707031 439.519531 C 610.988281 440.238281 610.125 440.597656 609.113281 440.597656 L 597.269531 440.597656 C 596.246094 440.597656 595.371094 440.238281 594.664062 439.519531 C 593.953125 438.804688 593.59375 437.941406 593.59375 436.929688 L 593.59375 414.140625 C 593.59375 413.140625 593.957031 412.28125 594.6875 411.558594 C 595.410156 410.832031 596.269531 410.46875 597.269531 410.46875 L 609.15625 410.46875 C 610.136719 410.46875 610.988281 410.832031 611.707031 411.558594 Z M 563.820312 327.378906 L 575.425781 327.378906 L 575.425781 304.910156 L 563.820312 304.910156 Z M 563.683594 301.054688 L 575.566406 301.054688 C 576.546875 301.054688 577.398438 301.417969 578.121094 302.144531 C 578.835938 302.867188 579.195312 303.734375 579.195312 304.730469 L 579.195312 327.515625 C 579.195312 328.527344 578.835938 329.390625 578.121094 330.113281 C 577.398438 330.828125 576.535156 331.183594 575.523438 331.183594 L 563.683594 331.183594 C 562.65625 331.183594 561.785156 330.828125 561.074219 330.113281 C 560.363281 329.390625 560.007812 328.527344 560.007812 327.515625 L 560.007812 304.730469 C 560.007812 303.734375 560.371094 302.867188 561.097656 302.144531 C 561.820312 301.417969 562.679688 301.054688 563.683594 301.054688 Z M 533.8125 327.378906 C 533.285156 327.378906 532.828125 327.558594 532.460938 327.921875 C 532.089844 328.285156 531.90625 328.722656 531.90625 329.238281 C 531.90625 329.765625 532.089844 330.222656 532.460938 330.609375 C 532.828125 330.992188 533.285156 331.183594 533.8125 331.183594 L 549.191406 331.183594 C 549.71875 331.183594 550.167969 331.003906 550.535156 330.632812 C 550.90625 330.261719 551.09375 329.816406 551.09375 329.285156 L 551.09375 319.445312 C 551.09375 318.910156 550.90625 318.464844 550.535156 318.09375 C 550.167969 317.722656 549.71875 317.542969 549.191406 317.542969 C 548.65625 317.542969 548.207031 317.730469 547.835938 318.105469 C 547.46875 318.488281 547.285156 318.929688 547.285156 319.445312 L 547.285156 327.378906 L 543.476562 327.378906 L 543.476562 301.101562 L 533.902344 301.101562 C 533.375 301.101562 532.921875 301.292969 532.554688 301.660156 C 532.179688 302.03125 531.996094 302.480469 531.996094 303.007812 C 531.996094 303.539062 532.179688 303.988281 532.554688 304.351562 C 532.921875 304.730469 533.375 304.910156 533.902344 304.910156 L 539.664062 304.910156 L 539.664062 327.378906 Z M 507.707031 327.378906 L 519.320312 327.378906 L 519.320312 304.910156 L 507.707031 304.910156 Z M 507.570312 301.054688 L 519.453125 301.054688 C 520.4375 301.054688 521.285156 301.417969 522.007812 302.144531 C 522.722656 302.867188 523.082031 303.734375 523.082031 304.730469 L 523.082031 327.515625 C 523.082031 328.527344 522.722656 329.390625 522.007812 330.113281 C 521.285156 330.828125 520.421875 331.183594 519.410156 331.183594 L 507.570312 331.183594 C 506.542969 331.183594 505.671875 330.828125 504.960938 330.113281 C 504.25 329.390625 503.898438 328.527344 503.898438 327.515625 L 503.898438 304.730469 C 503.898438 303.734375 504.257812 302.867188 504.984375 302.144531 C 505.710938 301.417969 506.574219 301.054688 507.570312 301.054688 Z M 487.363281 301.101562 L 477.789062 301.101562 C 477.261719 301.101562 476.8125 301.292969 476.441406 301.660156 C 476.074219 302.03125 475.886719 302.480469 475.886719 303.007812 C 475.886719 303.539062 476.074219 303.988281 476.441406 304.351562 C 476.8125 304.730469 477.261719 304.910156 477.789062 304.910156 L 483.554688 304.910156 L 483.554688 327.378906 L 477.699219 327.378906 C 477.171875 327.378906 476.722656 327.558594 476.351562 327.921875 C 475.980469 328.285156 475.792969 328.722656 475.792969 329.238281 C 475.792969 329.765625 475.980469 330.222656 476.351562 330.609375 C 476.722656 330.992188 477.171875 331.183594 477.699219 331.183594 L 493.078125 331.183594 C 493.605469 331.183594 494.058594 331.003906 494.421875 330.632812 C 494.800781 330.261719 494.980469 329.816406 494.980469 329.285156 L 494.980469 319.445312 C 494.980469 318.910156 494.800781 318.464844 494.421875 318.09375 C 494.058594 317.722656 493.605469 317.542969 493.078125 317.542969 C 492.550781 317.542969 492.101562 317.730469 491.730469 318.105469 C 491.359375 318.488281 491.171875 318.929688 491.171875 319.445312 L 491.171875 327.378906 L 487.363281 327.378906 Z M 451.59375 327.378906 L 463.207031 327.378906 L 463.207031 304.910156 L 451.59375 304.910156 Z M 451.457031 301.054688 L 463.347656 301.054688 C 464.328125 301.054688 465.179688 301.417969 465.894531 302.144531 C 466.617188 302.867188 466.972656 303.734375 466.972656 304.730469 L 466.972656 327.515625 C 466.972656 328.527344 466.617188 329.390625 465.894531 330.113281 C 465.179688 330.828125 464.3125 331.183594 463.296875 331.183594 L 451.457031 331.183594 C 450.429688 331.183594 449.5625 330.828125 448.855469 330.113281 C 448.136719 329.390625 447.785156 328.527344 447.785156 327.515625 L 447.785156 304.730469 C 447.785156 303.734375 448.148438 302.867188 448.871094 302.144531 C 449.601562 301.417969 450.460938 301.054688 451.457031 301.054688 Z M 421.59375 327.378906 C 421.058594 327.378906 420.609375 327.558594 420.238281 327.921875 C 419.867188 328.285156 419.6875 328.722656 419.6875 329.238281 C 419.6875 329.765625 419.867188 330.222656 420.238281 330.609375 C 420.609375 330.992188 421.058594 331.183594 421.59375 331.183594 L 436.964844 331.183594 C 437.492188 331.183594 437.945312 331.003906 438.316406 330.632812 C 438.6875 330.261719 438.875 329.816406 438.875 329.285156 L 438.875 319.445312 C 438.875 318.910156 438.6875 318.464844 438.316406 318.09375 C 437.945312 317.722656 437.492188 317.542969 436.964844 317.542969 C 436.4375 317.542969 435.988281 317.730469 435.617188 318.105469 C 435.246094 318.488281 435.058594 318.929688 435.058594 319.445312 L 435.058594 327.378906 L 431.25 327.378906 L 431.25 301.101562 L 421.675781 301.101562 C 421.148438 301.101562 420.699219 301.292969 420.332031 301.660156 C 419.960938 302.03125 419.777344 302.480469 419.777344 303.007812 C 419.777344 303.539062 419.960938 303.988281 420.332031 304.351562 C 420.699219 304.730469 421.148438 304.910156 421.675781 304.910156 L 427.441406 304.910156 L 427.441406 327.378906 Z M 393.535156 327.378906 C 393 327.378906 392.550781 327.558594 392.183594 327.921875 C 391.820312 328.285156 391.628906 328.722656 391.628906 329.238281 C 391.628906 329.765625 391.820312 330.222656 392.183594 330.609375 C 392.550781 330.992188 393 331.183594 393.535156 331.183594 L 408.914062 331.183594 C 409.441406 331.183594 409.890625 331.003906 410.261719 330.632812 C 410.628906 330.261719 410.816406 329.816406 410.816406 329.285156 L 410.816406 319.445312 C 410.816406 318.910156 410.628906 318.464844 410.261719 318.09375 C 409.890625 317.722656 409.441406 317.542969 408.914062 317.542969 C 408.378906 317.542969 407.929688 317.730469 407.5625 318.105469 C 407.191406 318.488281 407.003906 318.929688 407.003906 319.445312 L 407.003906 327.378906 L 403.191406 327.378906 L 403.191406 301.101562 L 393.625 301.101562 C 393.09375 301.101562 392.644531 301.292969 392.28125 301.660156 C 391.902344 302.03125 391.722656 302.480469 391.722656 303.007812 C 391.722656 303.539062 391.902344 303.988281 392.28125 304.351562 C 392.644531 304.730469 393.09375 304.910156 393.625 304.910156 L 399.390625 304.910156 L 399.390625 327.378906 Z M 367.433594 327.378906 L 379.042969 327.378906 L 379.042969 304.910156 L 367.433594 304.910156 Z M 364.683594 330.113281 C 363.972656 329.390625 363.621094 328.527344 363.621094 327.515625 L 363.621094 304.730469 C 363.621094 303.734375 363.980469 302.867188 364.707031 302.144531 C 365.4375 301.417969 366.292969 301.054688 367.292969 301.054688 L 379.175781 301.054688 C 380.160156 301.054688 381.007812 301.417969 381.730469 302.144531 C 382.445312 302.867188 382.804688 303.734375 382.804688 304.730469 L 382.804688 327.515625 C 382.804688 328.527344 382.445312 329.390625 381.730469 330.113281 C 381.007812 330.828125 380.148438 331.183594 379.132812 331.183594 L 367.292969 331.183594 C 366.265625 331.183594 365.394531 330.828125 364.683594 330.113281 Z M 681.621094 251.4375 L 670.003906 251.4375 L 670.003906 273.902344 L 681.621094 273.902344 Z M 681.714844 277.710938 L 669.871094 277.710938 C 668.847656 277.710938 667.972656 277.351562 667.261719 276.628906 C 666.554688 275.914062 666.195312 275.046875 666.195312 274.035156 L 666.195312 251.246094 C 666.195312 250.253906 666.558594 249.390625 667.289062 248.664062 C 668.011719 247.941406 668.871094 247.578125 669.871094 247.578125 L 681.757812 247.578125 C 682.738281 247.578125 683.589844 247.941406 684.308594 248.664062 C 685.027344 249.390625 685.382812 250.253906 685.382812 251.246094 L 685.382812 274.035156 C 685.382812 275.046875 685.027344 275.914062 684.308594 276.628906 C 683.589844 277.351562 682.726562 277.710938 681.714844 277.710938 Z M 654.03125 264.625 C 653.65625 265.007812 653.476562 265.453125 653.476562 265.964844 L 653.476562 273.902344 L 649.664062 273.902344 L 649.664062 247.621094 L 640.09375 247.621094 C 639.566406 247.621094 639.109375 247.808594 638.746094 248.179688 C 638.371094 248.550781 638.1875 248.996094 638.1875 249.53125 C 638.1875 250.058594 638.371094 250.507812 638.746094 250.878906 C 639.109375 251.246094 639.566406 251.4375 640.09375 251.4375 L 645.855469 251.4375 L 645.855469 273.902344 L 640 273.902344 C 639.472656 273.902344 639.023438 274.082031 638.648438 274.445312 C 638.285156 274.804688 638.097656 275.246094 638.097656 275.757812 C 638.097656 276.289062 638.285156 276.746094 638.648438 277.128906 C 639.023438 277.515625 639.472656 277.710938 640 277.710938 L 655.378906 277.710938 C 655.90625 277.710938 656.355469 277.523438 656.734375 277.152344 C 657.097656 276.78125 657.285156 276.332031 657.285156 275.804688 L 657.285156 265.964844 C 657.285156 265.4375 657.097656 264.988281 656.734375 264.617188 C 656.355469 264.242188 655.90625 264.058594 655.378906 264.058594 C 654.851562 264.058594 654.402344 264.25 654.03125 264.625 Z M 625.507812 251.4375 L 613.898438 251.4375 L 613.898438 273.902344 L 625.507812 273.902344 Z M 625.601562 277.710938 L 613.757812 277.710938 C 612.734375 277.710938 611.867188 277.351562 611.152344 276.628906 C 610.441406 275.914062 610.089844 275.046875 610.089844 274.035156 L 610.089844 251.246094 C 610.089844 250.253906 610.445312 249.390625 611.175781 248.664062 C 611.902344 247.941406 612.765625 247.578125 613.757812 247.578125 L 625.644531 247.578125 C 626.625 247.578125 627.480469 247.941406 628.195312 248.664062 C 628.917969 249.390625 629.277344 250.253906 629.277344 251.246094 L 629.277344 274.035156 C 629.277344 275.046875 628.917969 275.914062 628.195312 276.628906 C 627.480469 277.351562 626.613281 277.710938 625.601562 277.710938 Z M 600.621094 277.152344 C 600.988281 276.78125 601.171875 276.332031 601.171875 275.804688 L 601.171875 265.964844 C 601.171875 265.4375 600.988281 264.988281 600.621094 264.617188 C 600.25 264.242188 599.800781 264.058594 599.265625 264.058594 C 598.738281 264.058594 598.289062 264.25 597.921875 264.625 C 597.550781 265.007812 597.363281 265.453125 597.363281 265.964844 L 597.363281 273.902344 L 593.550781 273.902344 L 593.550781 247.621094 L 583.980469 247.621094 C 583.453125 247.621094 583.003906 247.808594 582.632812 248.179688 C 582.261719 248.550781 582.074219 248.996094 582.074219 249.53125 C 582.074219 250.058594 582.261719 250.507812 582.632812 250.878906 C 583.003906 251.246094 583.453125 251.4375 583.980469 251.4375 L 589.742188 251.4375 L 589.742188 273.902344 L 583.890625 273.902344 C 583.359375 273.902344 582.914062 274.082031 582.542969 274.445312 C 582.171875 274.804688 581.984375 275.246094 581.984375 275.757812 C 581.984375 276.289062 582.171875 276.746094 582.542969 277.128906 C 582.914062 277.515625 583.359375 277.710938 583.890625 277.710938 L 599.265625 277.710938 C 599.800781 277.710938 600.25 277.523438 600.621094 277.152344 Z M 569.398438 251.4375 L 557.785156 251.4375 L 557.785156 273.902344 L 569.398438 273.902344 Z M 569.535156 247.578125 C 570.519531 247.578125 571.367188 247.941406 572.082031 248.664062 C 572.804688 249.390625 573.164062 250.253906 573.164062 251.246094 L 573.164062 274.035156 C 573.164062 275.046875 572.804688 275.914062 572.082031 276.628906 C 571.367188 277.351562 570.5 277.710938 569.488281 277.710938 L 557.652344 277.710938 C 556.621094 277.710938 555.753906 277.351562 555.042969 276.628906 C 554.328125 275.914062 553.976562 275.046875 553.976562 274.035156 L 553.976562 251.246094 C 553.976562 250.253906 554.339844 249.390625 555.0625 248.664062 C 555.789062 247.941406 556.652344 247.578125 557.652344 247.578125 Z M 527.78125 273.902344 C 527.253906 273.902344 526.800781 274.082031 526.429688 274.445312 C 526.058594 274.804688 525.878906 275.246094 525.878906 275.757812 C 525.878906 276.289062 526.058594 276.746094 526.429688 277.128906 C 526.800781 277.515625 527.253906 277.710938 527.78125 277.710938 L 543.152344 277.710938 C 543.6875 277.710938 544.136719 277.523438 544.507812 277.152344 C 544.875 276.78125 545.066406 276.332031 545.066406 275.804688 L 545.066406 265.964844 C 545.066406 265.4375 544.875 264.988281 544.507812 264.617188 C 544.136719 264.242188 543.6875 264.058594 543.152344 264.058594 C 542.625 264.058594 542.175781 264.25 541.808594 264.625 C 541.4375 265.007812 541.25 265.453125 541.25 265.964844 L 541.25 273.902344 L 537.4375 273.902344 L 537.4375 247.621094 L 527.867188 247.621094 C 527.339844 247.621094 526.890625 247.808594 526.519531 248.179688 C 526.148438 248.550781 525.96875 248.996094 525.96875 249.53125 C 525.96875 250.058594 526.148438 250.507812 526.519531 250.878906 C 526.890625 251.246094 527.339844 251.4375 527.867188 251.4375 L 533.628906 251.4375 L 533.628906 273.902344 Z M 513.75 264.625 C 513.378906 265.007812 513.199219 265.453125 513.199219 265.964844 L 513.199219 273.902344 L 509.382812 273.902344 L 509.382812 247.621094 L 499.816406 247.621094 C 499.28125 247.621094 498.832031 247.808594 498.46875 248.179688 C 498.09375 248.550781 497.910156 248.996094 497.910156 249.53125 C 497.910156 250.058594 498.09375 250.507812 498.46875 250.878906 C 498.832031 251.246094 499.28125 251.4375 499.816406 251.4375 L 505.578125 251.4375 L 505.578125 273.902344 L 499.726562 273.902344 C 499.199219 273.902344 498.742188 274.082031 498.371094 274.445312 C 498.007812 274.804688 497.820312 275.246094 497.820312 275.757812 C 497.820312 276.289062 498.007812 276.746094 498.371094 277.128906 C 498.742188 277.515625 499.199219 277.710938 499.726562 277.710938 L 515.101562 277.710938 C 515.632812 277.710938 516.082031 277.523438 516.449219 277.152344 C 516.820312 276.78125 517.007812 276.332031 517.007812 275.804688 L 517.007812 265.964844 C 517.007812 265.4375 516.820312 264.988281 516.449219 264.617188 C 516.082031 264.242188 515.632812 264.058594 515.101562 264.058594 C 514.574219 264.058594 514.121094 264.25 513.75 264.625 Z M 485.234375 251.4375 L 473.621094 251.4375 L 473.621094 273.902344 L 485.234375 273.902344 Z M 485.367188 247.578125 C 486.347656 247.578125 487.199219 247.941406 487.921875 248.664062 C 488.636719 249.390625 488.996094 250.253906 488.996094 251.246094 L 488.996094 274.035156 C 488.996094 275.046875 488.636719 275.914062 487.921875 276.628906 C 487.199219 277.351562 486.335938 277.710938 485.324219 277.710938 L 473.484375 277.710938 C 472.457031 277.710938 471.585938 277.351562 470.875 276.628906 C 470.164062 275.914062 469.804688 275.046875 469.804688 274.035156 L 469.804688 251.246094 C 469.804688 250.253906 470.171875 249.390625 470.898438 248.664062 C 471.621094 247.941406 472.480469 247.578125 473.484375 247.578125 Z M 556.546875 234.382812 L 568.160156 234.382812 L 568.160156 211.917969 L 556.546875 211.917969 Z M 553.800781 237.121094 C 553.089844 236.402344 552.738281 235.535156 552.738281 234.523438 L 552.738281 211.738281 C 552.738281 210.742188 553.101562 209.882812 553.824219 209.152344 C 554.550781 208.433594 555.414062 208.066406 556.410156 208.066406 L 568.296875 208.066406 C 569.273438 208.066406 570.128906 208.433594 570.847656 209.152344 C 571.5625 209.882812 571.925781 210.742188 571.925781 211.738281 L 571.925781 234.523438 C 571.925781 235.535156 571.5625 236.402344 570.847656 237.121094 C 570.128906 237.839844 569.261719 238.199219 568.25 238.199219 L 556.410156 238.199219 C 555.382812 238.199219 554.515625 237.839844 553.800781 237.121094 Z M 526.542969 234.382812 C 526.011719 234.382812 525.5625 234.574219 525.191406 234.9375 C 524.820312 235.292969 524.632812 235.730469 524.632812 236.246094 C 524.632812 236.773438 524.820312 237.234375 525.191406 237.617188 C 525.5625 238.003906 526.011719 238.199219 526.542969 238.199219 L 541.917969 238.199219 C 542.445312 238.199219 542.898438 238.011719 543.269531 237.640625 C 543.640625 237.269531 543.828125 236.820312 543.828125 236.292969 L 543.828125 226.453125 C 543.828125 225.925781 543.640625 225.476562 543.269531 225.105469 C 542.898438 224.730469 542.445312 224.550781 541.917969 224.550781 C 541.386719 224.550781 540.941406 224.738281 540.570312 225.113281 C 540.199219 225.496094 540.011719 225.9375 540.011719 226.453125 L 540.011719 234.382812 L 536.203125 234.382812 L 536.203125 209.675781 L 548.789062 209.675781 C 549.882812 209.675781 550.773438 208.789062 550.773438 207.691406 L 550.773438 205.265625 L 532.957031 205.265625 L 532.957031 207.691406 C 532.957031 207.835938 533.015625 207.972656 533.046875 208.109375 L 526.628906 208.109375 C 526.101562 208.109375 525.652344 208.296875 525.28125 208.667969 C 524.914062 209.039062 524.730469 209.492188 524.730469 210.019531 C 524.730469 210.546875 524.914062 210.996094 525.28125 211.367188 C 525.652344 211.738281 526.101562 211.917969 526.628906 211.917969 L 532.390625 211.917969 L 532.390625 234.382812 Z M 500.433594 234.382812 L 512.050781 234.382812 L 512.050781 211.917969 L 500.433594 211.917969 Z M 497.691406 237.121094 C 496.984375 236.402344 496.625 235.535156 496.625 234.523438 L 496.625 211.738281 C 496.625 210.742188 496.988281 209.882812 497.71875 209.152344 C 498.4375 208.433594 499.300781 208.066406 500.300781 208.066406 L 512.1875 208.066406 C 513.167969 208.066406 514.019531 208.433594 514.734375 209.152344 C 515.457031 209.882812 515.8125 210.742188 515.8125 211.738281 L 515.8125 234.523438 C 515.8125 235.535156 515.457031 236.402344 514.734375 237.121094 C 514.019531 237.839844 513.15625 238.199219 512.136719 238.199219 L 500.300781 238.199219 C 499.269531 238.199219 498.402344 237.839844 497.691406 237.121094 Z M 472.386719 234.382812 L 483.988281 234.382812 L 483.988281 211.917969 L 472.386719 211.917969 Z M 469.636719 237.121094 C 468.925781 236.402344 468.570312 235.535156 468.570312 234.523438 L 468.570312 211.738281 C 468.570312 210.742188 468.933594 209.882812 469.660156 209.152344 C 470.382812 208.433594 471.246094 208.066406 472.246094 208.066406 L 484.128906 208.066406 C 485.113281 208.066406 485.960938 208.433594 486.683594 209.152344 C 487.398438 209.882812 487.757812 210.742188 487.757812 211.738281 L 487.757812 234.523438 C 487.757812 235.535156 487.398438 236.402344 486.683594 237.121094 C 485.960938 237.839844 485.101562 238.199219 484.085938 238.199219 L 472.246094 238.199219 C 471.21875 238.199219 470.347656 237.839844 469.636719 237.121094 Z M 444.328125 234.382812 L 455.9375 234.382812 L 455.9375 211.917969 L 444.328125 211.917969 Z M 440.511719 211.738281 C 440.511719 210.742188 440.875 209.882812 441.605469 209.152344 C 442.328125 208.433594 443.1875 208.066406 444.1875 208.066406 L 456.074219 208.066406 C 457.054688 208.066406 457.90625 208.433594 458.625 209.152344 C 459.34375 209.882812 459.707031 210.742188 459.707031 211.738281 L 459.707031 234.523438 C 459.707031 235.535156 459.34375 236.402344 458.625 237.121094 C 457.90625 237.839844 457.042969 238.199219 456.03125 238.199219 L 444.1875 238.199219 C 443.164062 238.199219 442.296875 237.839844 441.582031 237.121094 C 440.871094 236.402344 440.511719 235.535156 440.511719 234.523438 Z M 427.792969 234.382812 L 423.980469 234.382812 L 423.980469 208.109375 L 414.410156 208.109375 C 413.882812 208.109375 413.433594 208.296875 413.0625 208.667969 C 412.691406 209.039062 412.503906 209.492188 412.503906 210.019531 C 412.503906 210.546875 412.691406 210.996094 413.0625 211.367188 C 413.433594 211.738281 413.882812 211.917969 414.410156 211.917969 L 420.171875 211.917969 L 420.171875 234.382812 L 414.320312 234.382812 C 413.789062 234.382812 413.339844 234.574219 412.972656 234.9375 C 412.601562 235.292969 412.414062 235.730469 412.414062 236.246094 C 412.414062 236.773438 412.601562 237.234375 412.972656 237.617188 C 413.339844 238.003906 413.789062 238.199219 414.320312 238.199219 L 429.695312 238.199219 C 430.222656 238.199219 430.671875 238.011719 431.042969 237.640625 C 431.417969 237.269531 431.601562 236.820312 431.601562 236.292969 L 431.601562 226.453125 C 431.601562 225.925781 431.417969 225.476562 431.042969 225.105469 C 430.671875 224.730469 430.222656 224.550781 429.695312 224.550781 C 429.167969 224.550781 428.71875 224.738281 428.351562 225.113281 C 427.972656 225.496094 427.792969 225.9375 427.792969 226.453125 Z M 386.261719 234.382812 C 385.734375 234.382812 385.285156 234.574219 384.914062 234.9375 C 384.546875 235.292969 384.355469 235.730469 384.355469 236.246094 C 384.355469 236.773438 384.546875 237.234375 384.914062 237.617188 C 385.285156 238.003906 385.734375 238.199219 386.261719 238.199219 L 401.640625 238.199219 C 402.167969 238.199219 402.617188 238.011719 402.992188 237.640625 C 403.363281 237.269531 403.542969 236.820312 403.542969 236.292969 L 403.542969 226.453125 C 403.542969 225.925781 403.363281 225.476562 402.992188 225.105469 C 402.617188 224.730469 402.167969 224.550781 401.640625 224.550781 C 401.113281 224.550781 400.664062 224.738281 400.292969 225.113281 C 399.921875 225.496094 399.734375 225.9375 399.734375 226.453125 L 399.734375 234.382812 L 395.925781 234.382812 L 395.925781 208.109375 L 386.351562 208.109375 C 385.824219 208.109375 385.375 208.296875 385.007812 208.667969 C 384.636719 209.039062 384.449219 209.492188 384.449219 210.019531 C 384.449219 210.546875 384.636719 210.996094 385.007812 211.367188 C 385.375 211.738281 385.824219 211.917969 386.351562 211.917969 L 392.117188 211.917969 L 392.117188 234.382812 Z M 356.347656 222.082031 L 356.347656 234.523438 C 356.347656 235.535156 356.699219 236.402344 357.417969 237.121094 C 358.125 237.839844 358.992188 238.199219 360.019531 238.199219 L 371.859375 238.199219 C 372.875 238.199219 373.742188 237.839844 374.457031 237.121094 C 375.179688 236.402344 375.535156 235.535156 375.535156 234.523438 L 375.535156 211.738281 C 375.535156 210.742188 375.179688 209.882812 374.457031 209.152344 C 374.226562 208.917969 373.972656 208.734375 373.703125 208.570312 C 372.1875 209.667969 370.683594 210.789062 369.171875 211.917969 L 371.769531 211.917969 L 371.769531 234.382812 L 360.160156 234.382812 L 360.160156 218.957031 C 358.890625 219.984375 357.617188 221.027344 356.347656 222.082031 Z M 89.34375 301.617188 L 96.007812 301.617188 L 96.007812 290.347656 L 97.050781 290.347656 L 97.050781 301.617188 L 103.039062 301.617188 C 104.890625 301.617188 106.429688 301.089844 107.625 300.046875 C 108.859375 298.96875 109.507812 297.484375 109.507812 295.753906 C 109.507812 294.402344 109.101562 293.25 108.328125 292.378906 C 109.0625 291.359375 109.257812 290.292969 109.257812 289.449219 C 109.257812 287.800781 108.621094 286.355469 107.417969 285.28125 C 106.230469 284.222656 104.484375 283.707031 102.074219 283.707031 L 87.078125 283.707031 L 87.078125 290.347656 L 89.34375 290.347656 Z M 79.832031 290.074219 L 77.96875 290.074219 L 77.96875 283.707031 L 86.296875 283.707031 L 86.296875 301.617188 L 79.832031 301.617188 L 79.832031 290.074219 " fill-opacity="1" fill-rule="nonzero"/><path fill="#784f5e" d="M 426.90625 407.3125 L 426.90625 426.382812 L 436.132812 433.550781 C 436.132812 433.550781 404.5625 468.277344 393.152344 468.277344 C 381.816406 468.277344 350.78125 436.296875 350.78125 436.296875 L 361.289062 428.71875 L 361.289062 409.46875 C 356.753906 404.792969 353.898438 398.570312 353.558594 390.789062 L 352.722656 370.351562 C 346.605469 370.90625 336.765625 353.339844 342.039062 345.058594 C 345.023438 340.371094 348.832031 343.523438 351.789062 347.59375 L 350.726562 321.550781 C 350.320312 312.460938 357.585938 304.875 366.6875 304.875 L 419.632812 304.875 C 428.730469 304.875 435.992188 312.460938 435.59375 321.550781 L 434.246094 354.445312 C 436.253906 348.925781 440.957031 338.253906 445.285156 345.058594 C 450.855469 353.808594 439.554688 372.933594 433.609375 370.078125 L 432.761719 390.789062 C 432.46875 397.429688 430.332031 402.929688 426.90625 407.3125 Z M 248.660156 615.898438 L 196.316406 585.632812 L 173.613281 618.445312 L 173.566406 618.4375 L 164.648438 631.632812 C 155.972656 644.476562 169.394531 673.207031 184.820312 674.800781 L 322.972656 678.316406 L 323.707031 671.191406 L 283.625 671.191406 L 282.347656 657.933594 C 281.878906 655.851562 283.246094 653.828125 285.105469 653.828125 L 325.503906 653.828125 L 327.515625 634.320312 L 241.601562 625.460938 Z M 564.453125 676.042969 L 484.523438 666.273438 L 485.554688 656.6875 C 485.875 655.238281 484.929688 653.828125 483.625 653.828125 L 427.519531 653.828125 L 429.234375 615.085938 L 513.410156 618.820312 L 509.457031 611.519531 L 570.199219 591.472656 L 589.246094 633.203125 L 590.730469 636.300781 C 597.433594 650.28125 579.941406 676.730469 564.453125 676.042969 " fill-opacity="1" fill-rule="nonzero"/><g clip-path="url(#id2)"><path fill="#141f35" d="M 126.460938 623.507812 L 126.460938 628.570312 C 126.460938 629.480469 127.203125 630.21875 128.113281 630.21875 C 129.023438 630.21875 129.761719 629.480469 129.761719 628.570312 L 129.761719 623.507812 C 129.761719 622.597656 129.023438 621.859375 128.113281 621.859375 C 127.203125 621.859375 126.460938 622.597656 126.460938 623.507812 Z M 121.832031 628.570312 L 121.832031 623.507812 C 121.832031 622.597656 121.09375 621.859375 120.175781 621.859375 C 119.265625 621.859375 118.527344 622.597656 118.527344 623.507812 L 118.527344 628.570312 C 118.527344 629.480469 119.265625 630.21875 120.175781 630.21875 C 121.09375 630.21875 121.832031 629.480469 121.832031 628.570312 Z M 113.90625 628.570312 L 113.90625 623.507812 C 113.90625 622.597656 113.164062 621.859375 112.253906 621.859375 C 111.339844 621.859375 110.597656 622.597656 110.597656 623.507812 L 110.597656 628.570312 C 110.597656 629.480469 111.339844 630.21875 112.253906 630.21875 C 113.164062 630.21875 113.90625 629.480469 113.90625 628.570312 Z M 105.96875 628.570312 L 105.96875 623.507812 C 105.96875 622.597656 105.230469 621.859375 104.320312 621.859375 C 103.402344 621.859375 102.671875 622.597656 102.671875 623.507812 L 102.671875 628.570312 C 102.671875 629.480469 103.402344 630.21875 104.320312 630.21875 C 105.230469 630.21875 105.96875 629.480469 105.96875 628.570312 Z M 98.042969 628.570312 L 98.042969 623.507812 C 98.042969 622.597656 97.308594 621.859375 96.390625 621.859375 C 95.480469 621.859375 94.742188 622.597656 94.742188 623.507812 L 94.742188 628.570312 C 94.742188 629.480469 95.480469 630.21875 96.390625 630.21875 C 97.308594 630.21875 98.042969 629.480469 98.042969 628.570312 Z M 90.113281 628.570312 L 90.113281 623.507812 C 90.113281 622.597656 89.371094 621.859375 88.457031 621.859375 C 87.546875 621.859375 86.808594 622.597656 86.808594 623.507812 L 86.808594 628.570312 C 86.808594 629.480469 87.546875 630.21875 88.457031 630.21875 C 89.371094 630.21875 90.113281 629.480469 90.113281 628.570312 Z M 82.183594 628.570312 L 82.183594 623.507812 C 82.183594 622.597656 81.445312 621.859375 80.535156 621.859375 C 79.617188 621.859375 78.878906 622.597656 78.878906 623.507812 L 78.878906 628.570312 C 78.878906 629.480469 79.617188 630.21875 80.535156 630.21875 C 81.445312 630.21875 82.183594 629.480469 82.183594 628.570312 Z M 74.25 623.507812 C 74.25 622.597656 73.507812 621.859375 72.597656 621.859375 C 71.691406 621.859375 70.949219 622.597656 70.949219 623.507812 L 70.949219 628.570312 C 70.949219 629.480469 71.691406 630.21875 72.597656 630.21875 C 73.507812 630.21875 74.25 629.480469 74.25 628.570312 Z M 75.394531 638.050781 L 123.460938 638.050781 C 124.375 638.050781 125.113281 637.308594 125.113281 636.398438 C 125.113281 635.484375 124.375 634.746094 123.460938 634.746094 L 75.394531 634.746094 C 74.480469 634.746094 73.746094 635.484375 73.746094 636.398438 C 73.746094 637.308594 74.480469 638.050781 75.394531 638.050781 Z M 415.417969 343.007812 C 412.414062 342.992188 409.472656 343.75 407.113281 345.289062 C 406.347656 345.792969 406.136719 346.816406 406.632812 347.582031 C 407.128906 348.339844 408.15625 348.558594 408.917969 348.054688 C 410.695312 346.890625 413.039062 346.230469 415.34375 346.308594 C 417.648438 346.363281 419.949219 347.101562 421.660156 348.34375 C 421.949219 348.558594 422.289062 348.660156 422.625 348.660156 C 423.140625 348.660156 423.636719 348.425781 423.964844 347.980469 C 424.496094 347.242188 424.332031 346.210938 423.601562 345.675781 C 421.324219 344.023438 418.417969 343.074219 415.417969 343.007812 Z M 374.328125 343.355469 C 371.328125 343.171875 368.347656 343.902344 365.902344 345.355469 C 365.121094 345.824219 364.867188 346.835938 365.332031 347.617188 C 365.792969 348.398438 366.808594 348.65625 367.597656 348.195312 C 369.453125 347.082031 371.832031 346.539062 374.140625 346.652344 C 376.429688 346.78125 378.671875 347.597656 380.296875 348.890625 C 380.601562 349.132812 380.964844 349.25 381.324219 349.25 C 381.808594 349.25 382.289062 349.035156 382.617188 348.628906 C 383.1875 347.914062 383.066406 346.878906 382.355469 346.308594 C 380.175781 344.574219 377.328125 343.523438 374.328125 343.355469 Z M 379.230469 399.59375 C 379.085938 400.492188 379.691406 401.339844 380.589844 401.492188 C 381.003906 401.558594 387.554688 402.621094 394.949219 402.621094 C 398.800781 402.621094 402.882812 402.328125 406.445312 401.46875 C 407.332031 401.25 407.875 400.359375 407.65625 399.472656 C 407.445312 398.589844 406.546875 398.035156 405.667969 398.261719 C 395.925781 400.625 381.277344 398.261719 381.128906 398.238281 C 380.214844 398.074219 379.375 398.699219 379.230469 399.59375 Z M 204.589844 567.734375 C 204.953125 567.90625 241.234375 584.335938 251.859375 595.589844 C 252.179688 595.929688 252.617188 596.105469 253.054688 596.105469 C 253.460938 596.105469 253.871094 595.960938 254.191406 595.65625 C 254.855469 595.035156 254.886719 593.992188 254.261719 593.324219 C 243.199219 581.601562 207.464844 565.414062 205.949219 564.726562 C 205.109375 564.351562 204.140625 564.726562 203.765625 565.550781 C 203.386719 566.382812 203.757812 567.363281 204.589844 567.734375 Z M 505.972656 598.550781 C 506.375 598.550781 506.78125 598.40625 507.101562 598.109375 C 524.871094 581.53125 561.351562 573.863281 561.714844 573.785156 C 562.609375 573.605469 563.183594 572.730469 563.003906 571.839844 C 562.820312 570.941406 561.941406 570.371094 561.050781 570.554688 C 559.519531 570.871094 523.300781 578.472656 504.84375 595.695312 C 504.179688 596.3125 504.140625 597.363281 504.765625 598.027344 C 505.089844 598.375 505.53125 598.550781 505.972656 598.550781 Z M 433.535156 332.539062 C 433.699219 329.082031 430.472656 326.460938 427.125 327.324219 L 395.863281 335.398438 C 395.863281 335.398438 375.816406 330.511719 362.78125 327.382812 C 357.761719 326.183594 352.957031 330.007812 353 335.164062 L 353.117188 349.097656 L 354.164062 351.722656 C 354.84375 350.777344 355.953125 350.15625 357.210938 350.15625 L 386.855469 350.15625 C 388.917969 350.15625 390.597656 351.835938 390.597656 353.898438 L 390.597656 354.09375 L 398.863281 354.09375 L 398.863281 353.53125 C 398.863281 351.675781 400.371094 350.15625 402.226562 350.15625 L 432.625 350.15625 C 432.65625 350.15625 432.679688 350.171875 432.710938 350.171875 Z M 432.691406 359.296875 C 432.65625 359.4375 432.613281 359.582031 432.585938 359.714844 L 432.257812 359.878906 L 432.554688 353.53125 L 402.226562 353.460938 L 402.167969 371.800781 L 432.625 371.859375 L 432.691406 371.800781 Z M 387.292969 353.898438 C 387.292969 353.664062 387.097656 353.460938 386.855469 353.460938 L 357.210938 353.460938 C 356.960938 353.460938 356.769531 353.664062 356.769531 353.898438 L 356.769531 371.421875 C 356.769531 371.664062 356.960938 371.859375 357.210938 371.859375 L 386.855469 371.859375 C 387.097656 371.859375 387.292969 371.664062 387.292969 371.421875 Z M 441.914062 289.152344 C 449.023438 300.539062 449.847656 319.015625 443.496094 343.210938 C 442.828125 342.832031 442.164062 342.804688 441.5 343.015625 L 435.992188 356.820312 L 435.992188 371.800781 C 435.992188 373.65625 434.484375 375.164062 432.625 375.164062 L 402.226562 375.164062 C 400.371094 375.164062 398.863281 373.65625 398.863281 371.800781 L 398.863281 357.390625 L 390.597656 357.390625 L 390.597656 371.421875 C 390.597656 373.484375 388.917969 375.164062 386.855469 375.164062 L 357.210938 375.164062 C 355.148438 375.164062 353.46875 373.484375 353.46875 371.421875 L 353.46875 357.933594 C 353.160156 357.757812 352.902344 357.472656 352.765625 357.121094 L 347.203125 343.183594 C 346.054688 342.628906 344.902344 342.535156 343.808594 343.203125 C 339.386719 330.277344 335.367188 312.320312 340.539062 298.703125 C 358.886719 250.40625 415.375 281.722656 415.375 281.722656 C 415.375 281.722656 433.574219 275.792969 441.914062 289.152344 Z M 674.621094 136.03125 C 674.117188 136.796875 674.332031 137.820312 675.09375 138.316406 C 675.375 138.507812 675.691406 138.589844 676 138.589844 C 676.539062 138.589844 677.066406 138.328125 677.382812 137.851562 C 703.316406 98.449219 678.382812 71.628906 678.128906 71.363281 C 677.496094 70.707031 676.453125 70.683594 675.792969 71.3125 C 675.132812 71.945312 675.113281 72.988281 675.746094 73.648438 C 675.980469 73.890625 699.125 98.808594 674.621094 136.03125 Z M 664.007812 133.308594 C 664.285156 133.496094 664.601562 133.582031 664.910156 133.582031 C 665.449219 133.582031 665.976562 133.320312 666.292969 132.835938 C 686.632812 101.941406 667.03125 80.859375 666.832031 80.652344 C 666.203125 79.992188 665.164062 79.96875 664.503906 80.597656 C 663.84375 81.222656 663.816406 82.273438 664.441406 82.933594 C 665.183594 83.707031 682.386719 102.390625 663.53125 131.023438 C 663.03125 131.789062 663.242188 132.8125 664.007812 133.308594 Z M 653.03125 124.257812 C 653.316406 124.445312 653.632812 124.527344 653.941406 124.527344 C 654.476562 124.527344 655.003906 124.269531 655.320312 123.785156 C 668.578125 103.652344 655.730469 89.839844 655.597656 89.707031 C 654.96875 89.042969 653.929688 89.019531 653.273438 89.652344 C 652.613281 90.277344 652.589844 91.320312 653.207031 91.980469 C 653.667969 92.464844 664.328125 104.101562 652.566406 121.96875 C 652.0625 122.734375 652.273438 123.757812 653.03125 124.257812 Z M 606.589844 139.75 C 606.902344 139.75 607.214844 139.664062 607.5 139.476562 C 608.257812 138.980469 608.46875 137.953125 607.964844 137.191406 C 583.519531 100.054688 605.886719 75.820312 606.851562 74.800781 C 607.472656 74.140625 607.449219 73.097656 606.789062 72.472656 C 606.132812 71.84375 605.089844 71.867188 604.460938 72.519531 C 604.203125 72.789062 579.273438 99.609375 605.207031 139.007812 C 605.527344 139.488281 606.050781 139.75 606.589844 139.75 Z M 616.300781 133.996094 C 616.617188 134.480469 617.136719 134.742188 617.679688 134.742188 C 617.988281 134.742188 618.304688 134.648438 618.582031 134.46875 C 619.347656 133.964844 619.558594 132.945312 619.054688 132.179688 C 600.207031 103.550781 617.398438 84.871094 618.144531 84.089844 C 618.769531 83.429688 618.75 82.386719 618.089844 81.757812 C 617.429688 81.125 616.386719 81.148438 615.753906 81.8125 C 615.554688 82.015625 595.953125 103.101562 616.300781 133.996094 Z M 628.644531 125.6875 C 628.957031 125.6875 629.269531 125.601562 629.554688 125.414062 C 630.3125 124.910156 630.527344 123.890625 630.023438 123.128906 C 618.261719 105.257812 628.914062 93.636719 629.378906 93.144531 C 630.003906 92.484375 629.980469 91.441406 629.324219 90.808594 C 628.664062 90.179688 627.621094 90.203125 626.988281 90.863281 C 626.855469 90.996094 614.015625 104.808594 627.269531 124.941406 C 627.585938 125.425781 628.113281 125.6875 628.644531 125.6875 Z M 142.632812 613.519531 L 59.617188 613.519531 L 65.691406 619.640625 L 136.5625 619.640625 Z M 145.878906 518.667969 C 145.878906 514.109375 142.1875 510.414062 137.625 510.414062 C 133.0625 510.414062 129.367188 514.109375 129.367188 518.667969 L 129.367188 546.261719 L 118.546875 546.261719 L 118.546875 502.664062 C 118.546875 496.457031 113.511719 491.417969 107.292969 491.417969 L 96.457031 491.417969 C 90.238281 491.417969 85.207031 496.457031 85.207031 502.664062 L 85.207031 564.195312 L 76.480469 564.195312 L 76.480469 536.589844 C 76.480469 532.03125 72.789062 528.339844 68.226562 528.339844 C 63.671875 528.339844 59.96875 532.03125 59.96875 536.589844 L 59.96875 564.835938 C 59.96875 573.585938 67.089844 580.699219 75.84375 580.699219 L 85.207031 580.699219 L 85.207031 605.042969 L 118.546875 605.042969 L 118.546875 562.773438 L 130.003906 562.773438 C 138.757812 562.773438 145.878906 555.65625 145.878906 546.90625 Z M 683.273438 610.203125 L 683.273438 643.390625 L 688.285156 643.390625 C 689.136719 643.390625 689.902344 642.851562 690.1875 642.042969 L 694.914062 628.71875 C 696.855469 623.253906 697.152344 617.382812 695.773438 611.746094 C 695.558594 610.839844 694.75 610.203125 693.816406 610.203125 Z M 683.273438 601.953125 L 693.816406 601.953125 C 698.566406 601.953125 702.671875 605.179688 703.800781 609.792969 C 705.554688 616.996094 705.171875 624.496094 702.695312 631.480469 L 697.972656 644.804688 C 696.515625 648.898438 692.625 651.644531 688.285156 651.644531 L 683.273438 651.644531 L 683.273438 669.609375 C 683.273438 672.867188 680.628906 675.503906 677.375 675.503906 L 628.917969 675.503906 C 625.660156 675.503906 623.023438 672.867188 623.023438 669.609375 L 623.023438 597.378906 L 683.273438 597.378906 Z M 411.484375 585.816406 C 411.484375 575.914062 402.003906 567.878906 390.308594 567.878906 C 378.613281 567.878906 369.128906 575.914062 369.128906 585.816406 C 369.128906 595.722656 378.613281 603.753906 390.308594 603.753906 C 402.003906 603.753906 411.484375 595.722656 411.484375 585.816406 Z M 486.402344 506.78125 C 487.101562 487.839844 494.164062 473.269531 494.484375 472.621094 C 494.882812 471.800781 495.875 471.460938 496.699219 471.863281 C 497.511719 472.269531 497.851562 473.257812 497.449219 474.074219 C 497.371094 474.226562 490.433594 488.585938 489.710938 506.78125 L 495.921875 506.78125 C 500.253906 506.78125 503.730469 510.367188 503.582031 514.695312 L 499.023438 652.566406 C 498.886719 656.699219 495.496094 659.976562 491.359375 659.976562 L 283.007812 659.976562 C 278.871094 659.976562 275.484375 656.699219 275.347656 652.566406 L 270.785156 514.695312 C 270.644531 510.367188 274.113281 506.78125 278.453125 506.78125 L 289.929688 506.78125 C 290.359375 498.019531 284.335938 484.785156 284.277344 484.648438 C 283.894531 483.820312 284.25 482.84375 285.082031 482.460938 C 285.914062 482.078125 286.890625 482.441406 287.273438 483.269531 C 287.539062 483.855469 293.617188 497.207031 293.234375 506.78125 L 384.714844 506.78125 L 384.300781 477.035156 C 384.261719 474.113281 385.832031 471.40625 388.398438 469.996094 L 391.230469 468.4375 L 373.117188 459.699219 C 369.769531 458 366.832031 456.164062 364.328125 458.679688 L 355.738281 467.300781 C 354.128906 468.914062 351.375 467.8125 351.328125 465.53125 L 350.730469 436.597656 C 350.125 431.539062 361.289062 409.628906 361.289062 409.628906 C 361.289062 409.628906 366.703125 445.382812 392.007812 468.003906 L 397.496094 464.984375 C 422.179688 445.007812 426.90625 407.375 426.90625 407.375 C 426.90625 407.375 436.691406 428.496094 436.132812 433.550781 L 437.765625 459.484375 C 437.910156 461.785156 435.3125 463.222656 433.445312 461.875 L 431.328125 460.359375 C 427.269531 457.4375 421.257812 456.761719 416.257812 458.65625 L 401.585938 464.652344 L 401.585938 506.78125 Z M 783.65625 675.875 L 499.542969 675.875 L 500.839844 665.371094 C 501.21875 663.921875 500.125 662.507812 498.628906 662.507812 L 270.238281 662.507812 C 268.089844 662.507812 266.527344 664.535156 267.066406 666.613281 L 268.089844 675.875 L 125.230469 675.875 L 127.359375 670.878906 L 72.859375 670.878906 L 74.996094 675.875 L 26.554688 675.875 C 21.1875 675.875 16.839844 680.222656 16.839844 685.589844 L 16.839844 698.734375 C 16.839844 704.101562 21.1875 708.449219 26.554688 708.449219 L 81.328125 708.449219 L 81.328125 754.363281 L 726.773438 754.363281 L 726.773438 708.449219 L 783.65625 708.449219 C 789.019531 708.449219 793.371094 704.101562 793.371094 698.734375 L 793.371094 685.589844 C 793.371094 680.222656 789.019531 675.875 783.65625 675.875 Z M 398.976562 386.910156 C 402.554688 385.613281 397.425781 375.566406 394.785156 370.867188 C 394.207031 369.839844 392.796875 369.9375 392.371094 371.023438 C 390.613281 375.578125 387.148438 384.757812 387.179688 386.5625 C 387.214844 388.996094 394.292969 388.613281 398.976562 386.910156 Z M 375.453125 355.894531 C 373.757812 355.894531 372.386719 357.992188 372.386719 360.582031 C 372.386719 363.171875 373.757812 365.269531 375.453125 365.269531 C 377.144531 365.269531 378.515625 363.171875 378.515625 360.582031 C 378.515625 357.992188 377.144531 355.894531 375.453125 355.894531 Z M 413.960938 355.894531 C 412.269531 355.894531 410.890625 357.992188 410.890625 360.582031 C 410.890625 363.171875 412.269531 365.269531 413.960938 365.269531 C 415.648438 365.269531 417.019531 363.171875 417.019531 360.582031 C 417.019531 357.992188 415.648438 355.894531 413.960938 355.894531 Z M 391.945312 440.554688 C 397.726562 442.3125 421.890625 418.046875 426.46875 407.882812 C 420.046875 415.664062 409.34375 419.679688 397.261719 419.679688 L 389.058594 419.679688 C 378.519531 419.679688 369.039062 416.628906 362.519531 410.691406 C 370.691406 420.273438 387.195312 439.101562 391.945312 440.554688 Z M 357.867188 405.167969 C 357.867188 405.167969 357.902344 405.214844 357.96875 405.296875 C 357.9375 405.253906 357.921875 405.210938 357.890625 405.167969 Z M 596.882812 183.796875 C 596.882812 186.226562 598.855469 188.199219 601.285156 188.199219 C 603.71875 188.199219 605.691406 186.226562 605.691406 183.796875 C 605.691406 181.363281 603.71875 179.394531 601.285156 179.394531 C 598.855469 179.394531 596.882812 181.363281 596.882812 183.796875 Z M 614.0625 183.796875 C 614.0625 186.226562 616.039062 188.199219 618.464844 188.199219 C 620.90625 188.199219 622.875 186.226562 622.875 183.796875 C 622.875 181.363281 620.90625 179.394531 618.464844 179.394531 C 616.039062 179.394531 614.0625 181.363281 614.0625 183.796875 Z M 631.527344 183.796875 C 631.527344 186.226562 633.503906 188.199219 635.9375 188.199219 C 638.371094 188.199219 640.339844 186.226562 640.339844 183.796875 C 640.339844 181.363281 638.371094 179.394531 635.9375 179.394531 C 633.503906 179.394531 631.527344 181.363281 631.527344 183.796875 Z M 551.683594 183.796875 C 551.683594 181.363281 549.710938 179.394531 547.277344 179.394531 C 544.847656 179.394531 542.875 181.363281 542.875 183.796875 C 542.875 186.226562 544.847656 188.199219 547.277344 188.199219 C 549.710938 188.199219 551.683594 186.226562 551.683594 183.796875 Z M 525.53125 195.941406 L 521.316406 195.941406 L 521.316406 170.457031 L 525.53125 170.457031 L 525.53125 164.308594 C 525.53125 163.210938 526.421875 162.324219 527.515625 162.324219 L 550.980469 162.324219 L 594.433594 151.488281 C 595.949219 151.105469 597.488281 152.027344 597.867188 153.542969 L 598.59375 156.449219 C 598.96875 157.964844 598.046875 159.5 596.53125 159.878906 L 586.726562 162.324219 L 636.015625 162.324219 L 636.015625 103.808594 C 636.015625 102.246094 637.285156 100.976562 638.84375 100.976562 L 641.839844 100.976562 C 643.40625 100.976562 644.671875 102.246094 644.671875 103.808594 L 644.671875 162.324219 L 660.074219 162.324219 C 661.167969 162.324219 662.058594 163.210938 662.058594 164.308594 L 662.058594 170.457031 L 665.960938 170.457031 L 665.960938 195.941406 L 662.058594 195.941406 L 662.058594 203.285156 C 662.058594 204.382812 661.167969 205.265625 660.074219 205.265625 L 527.515625 205.265625 C 526.421875 205.265625 525.53125 204.382812 525.53125 203.285156 Z M 276.160156 198.730469 L 426.195312 198.730469 L 426.195312 110.164062 L 276.160156 110.164062 Z M 430.109375 154.449219 C 430.109375 157.011719 432.195312 159.097656 434.761719 159.097656 C 437.328125 159.097656 439.414062 157.011719 439.414062 154.449219 C 439.414062 151.882812 437.328125 149.800781 434.761719 149.800781 C 432.195312 149.800781 430.109375 151.882812 430.109375 154.449219 Z M 257.394531 198.753906 L 257.394531 110.140625 C 257.394531 105.011719 261.558594 100.855469 266.691406 100.855469 L 435.75 100.855469 C 440.882812 100.855469 445.039062 105.011719 445.039062 110.140625 L 445.039062 198.753906 C 445.039062 203.882812 440.882812 208.039062 435.75 208.039062 L 266.691406 208.039062 C 261.558594 208.039062 257.394531 203.882812 257.394531 198.753906 Z M 38.234375 311.136719 L 38.234375 313.941406 L 41.035156 313.941406 L 41.035156 311.136719 Z M 46.289062 311.136719 L 46.289062 313.941406 L 49.09375 313.941406 L 49.09375 311.136719 Z M 107.855469 295.753906 C 107.855469 294.179688 107.148438 293.109375 105.722656 292.546875 C 106.976562 291.765625 107.609375 290.734375 107.609375 289.449219 C 107.609375 288.261719 107.175781 287.285156 106.316406 286.507812 C 105.453125 285.738281 104.039062 285.355469 102.074219 285.355469 L 98.707031 285.355469 L 98.707031 299.96875 L 103.039062 299.96875 C 104.488281 299.96875 105.65625 299.582031 106.535156 298.804688 C 107.417969 298.035156 107.855469 297.015625 107.855469 295.753906 Z M 96.644531 285.355469 L 88.730469 285.355469 L 88.730469 288.691406 L 91 288.691406 L 91 299.96875 L 94.359375 299.96875 L 94.359375 288.691406 L 96.644531 288.691406 Z M 84.640625 285.355469 L 79.617188 285.355469 L 79.617188 288.425781 L 81.480469 288.425781 L 81.480469 299.96875 L 84.640625 299.96875 Z M 152 395.152344 L 138.660156 395.152344 C 138.820312 395.40625 138.933594 395.683594 138.933594 396.003906 L 138.933594 416.730469 C 138.933594 421.78125 136.949219 426.503906 133.351562 430.035156 C 129.835938 433.496094 125.207031 435.390625 120.285156 435.390625 C 120.171875 435.390625 120.0625 435.382812 119.945312 435.382812 L 61.078125 434.363281 C 51.132812 434.195312 43.082031 426.269531 42.753906 416.324219 L 42.324219 342.972656 L 36.359375 342.972656 C 35.320312 342.972656 34.480469 342.128906 34.480469 341.09375 L 34.480469 319.496094 L 43.085938 319.496094 L 43.085938 311.136719 L 44.6875 311.136719 L 44.6875 319.496094 L 53.296875 319.496094 L 53.296875 341.09375 C 53.296875 342.128906 52.453125 342.972656 51.421875 342.972656 L 45.621094 342.972656 L 46.054688 416.257812 C 46.320312 424.402344 52.945312 430.921875 61.132812 431.058594 L 120.007812 432.085938 C 124.132812 432.140625 128.074219 430.59375 131.035156 427.683594 C 133.996094 424.773438 135.628906 420.882812 135.628906 416.730469 L 135.628906 396.003906 C 135.628906 395.683594 135.75 395.40625 135.902344 395.152344 L 74.601562 395.152344 C 71.429688 395.152344 68.851562 392.578125 68.851562 389.402344 L 68.851562 283.5 C 68.851562 280.328125 71.429688 277.75 74.601562 277.75 L 152 277.75 C 155.179688 277.75 157.75 280.328125 157.75 283.5 L 157.75 389.402344 C 157.75 392.578125 155.179688 395.152344 152 395.152344 Z M 102.300781 293.960938 L 102.019531 293.960938 L 102.019531 297.125 C 102.863281 297.105469 103.488281 296.980469 103.914062 296.730469 C 104.332031 296.488281 104.539062 296.089844 104.539062 295.523438 C 104.539062 294.480469 103.792969 293.960938 102.300781 293.960938 Z M 104.246094 289.769531 C 104.246094 289.175781 104.066406 288.761719 103.714844 288.53125 C 103.363281 288.296875 102.796875 288.175781 102.019531 288.15625 L 102.019531 291.308594 C 103.5 291.273438 104.246094 290.757812 104.246094 289.769531 Z M 48.078125 204.710938 C 49.230469 205.484375 50.664062 205.726562 52.011719 205.371094 L 54.691406 204.65625 C 54.617188 204.492188 54.546875 204.332031 54.492188 204.152344 L 36.269531 139.46875 C 36.230469 139.355469 36.226562 139.234375 36.207031 139.125 L 33.429688 140.027344 C 32.527344 140.324219 31.726562 140.863281 31.15625 141.621094 C 28.777344 144.75 23.6875 154.460938 29.304688 175.804688 C 33.96875 193.535156 43.871094 201.859375 48.078125 204.710938 Z M 71.242188 199.441406 C 71.308594 199.695312 71.351562 199.941406 71.367188 200.199219 L 72.363281 199.929688 C 74.945312 199.238281 76.464844 196.558594 75.71875 193.988281 L 59.179688 136.8125 C 58.429688 134.21875 55.675781 132.757812 53.101562 133.601562 L 52.5625 133.777344 C 52.746094 134.078125 52.910156 134.402344 53.011719 134.753906 Z M 151.265625 206.371094 L 153.949219 207.085938 C 155.292969 207.445312 156.726562 207.203125 157.878906 206.417969 C 162.089844 203.574219 171.988281 195.25 176.652344 177.519531 C 182.273438 156.175781 177.1875 146.46875 174.808594 143.339844 C 174.234375 142.582031 173.433594 142.042969 172.527344 141.742188 L 169.75 140.839844 C 169.734375 140.957031 169.726562 141.070312 169.691406 141.1875 L 151.46875 205.875 C 151.414062 206.050781 151.339844 206.207031 151.265625 206.371094 Z M 130.242188 195.703125 L 146.777344 138.53125 C 147.53125 135.933594 150.285156 134.480469 152.855469 135.316406 L 153.394531 135.492188 C 153.214844 135.796875 153.050781 136.117188 152.953125 136.472656 L 134.71875 201.15625 C 134.652344 201.410156 134.609375 201.664062 134.589844 201.914062 L 133.597656 201.648438 C 131.011719 200.957031 129.496094 198.277344 130.242188 195.703125 " fill-opacity="1" fill-rule="nonzero"/></g></svg>