<?xml version="1.0" encoding="iso-8859-1"?>
<!-- Generator: Adobe Illustrator 19.1.0, SVG Export Plug-In . SVG Version: 6.00 Build 0)  -->
<svg version="1.1" id="Capa_1" xmlns="http://www.w3.org/2000/svg" xmlns:xlink="http://www.w3.org/1999/xlink" x="0px" y="0px"
	 viewBox="0 0 488.2 488.2" style="enable-background:new 0 0 488.2 488.2;" xml:space="preserve">
<g>
	<g>
		<path d="M441.8,197.9c-20.1,0-37.1,12.8-43.5,30.6h-27.2c-2.9-23.8-12.4-45.5-26.5-63.5l19.1-19.1c17.3,8.4,38.7,5.5,53-8.9
			c18.1-18.1,18.1-47.4,0-65.5s-47.4-18.1-65.5,0c-14.2,14.2-17.2,35.3-9.1,52.4l-19.3,19.3c-17.8-13.9-39.4-23.3-63-26.2V89.8
			c17.9-6.4,30.6-23.5,30.6-43.5c0-25.6-20.7-46.3-46.3-46.3c-25.6,0-46.3,20.7-46.3,46.3c0,20.3,13.1,37.5,31.2,43.7v26.9
			c-23.8,2.8-45.6,12.2-63.6,26.2l-19.3-19.3c8.1-17.2,5.1-38.3-9.1-52.4c-18.1-18.1-47.4-18.1-65.5,0s-18.1,47.4,0,65.5
			c14.3,14.3,35.7,17.3,53,8.9l19.1,19.1c-14.1,17.9-23.6,39.7-26.5,63.5H89.9c-6.4-17.9-23.5-30.6-43.5-30.6
			c-25.6,0.1-46.3,20.8-46.3,46.4s20.7,46.3,46.3,46.3c20.3,0,37.5-13.1,43.7-31.2H117c2.8,23.8,12.2,45.6,26.2,63.6l-19.3,19.3
			c-17.2-8.1-38.3-5.1-52.4,9.1c-18.1,18.1-18.1,47.4,0,65.5s47.4,18.1,65.5,0c14.3-14.3,17.3-35.7,8.9-53l19.1-19.1
			c18.1,14.3,40,23.7,64,26.6v26.9c-18.1,6.3-31.2,23.5-31.2,43.7c0,25.6,20.7,46.3,46.3,46.3s46.3-20.7,46.3-46.3
			c0-20.1-12.8-37.1-30.6-43.5v-27.2c23.8-2.9,45.5-12.4,63.5-26.5l19.1,19.1c-8.4,17.3-5.5,38.7,8.9,53c18.1,18.1,47.4,18.1,65.5,0
			s18.1-47.4,0-65.5c-14.2-14.2-35.3-17.2-52.4-9.1l-19.3-19.3c14.1-18,23.4-39.8,26.2-63.6h26.8c6.3,18.1,23.5,31.2,43.7,31.2
			c25.6,0,46.3-20.7,46.3-46.3C488.1,218.6,467.4,197.9,441.8,197.9z M322.1,305.6c-1.6-6.8-5.5-13.3-14-15.5
			c-19.8-5-36-16.4-36-16.4l-12.6,39.8l-2.4,7.5v-0.1l-2.1,6.3l-6.6-18.8c16.3-22.8-3.3-22.5-4.4-22.5s-20.7-0.3-4.4,22.5l-6.6,18.8
			l-2.1-6.3v0.1l-2.4-7.5l-12.6-39.8c0,0-16.1,11.4-36,16.4c-8.5,2.2-12.3,8.7-14,15.5c-13.3-16.9-21.3-38.2-21.3-61.4
			c0-54.8,44.5-99.3,99.3-99.3s99.3,44.5,99.3,99.3C343.4,267.4,335.4,288.7,322.1,305.6z"/>
		<path d="M280.9,220.2c0.6-1.8,1.1-3.5,1.4-5.3c5.5-33.1-10.8-34.3-10.8-34.3s-2.7-5.2-9.8-9.1c-4.8-2.8-11.4-5-20.2-4.3
			c-2.8,0.1-5.5,0.7-8,1.5l0,0c-3.2,1.1-6.2,2.7-8.8,4.5c-3.3,2.1-6.4,4.6-9.1,7.5c-4.3,4.4-8.2,10.1-9.8,17.2
			c-1.4,5.3-1.1,10.9,0.1,16.8l0,0c0.3,1.7,0.8,3.5,1.4,5.3c-3.3-0.3-7.1,1.6-3.5,14.4c2.6,9.3,5.1,12,7,12.1
			c1.7,11.1,10.3,25.2,24.4,30.2c5.8,2,12.1,2,17.9,0c13.9-5,22.7-19.1,24.4-30.2c1.9-0.1,4.3-2.8,7-12.1
			C288,221.8,284.2,219.9,280.9,220.2z"/>
	</g>
</g>
<g>
</g>
<g>
</g>
<g>
</g>
<g>
</g>
<g>
</g>
<g>
</g>
<g>
</g>
<g>
</g>
<g>
</g>
<g>
</g>
<g>
</g>
<g>
</g>
<g>
</g>
<g>
</g>
<g>
</g>
</svg>
